# xmcd CD database file
#
# Track frame offsets:
#	150
#	17553
#	31237
#	48119
#	63383
#	85010
#	96737
#	118415
#	133616
#	148196
#	163166
#	177536
#
# Disc length: 2577 seconds
#
# Revision: 0
# Processed by: cddbd v1.5.2PL0 Copyright (c) Steve Scherf et al.
# Submitted via: CDex 1.51
#
DISCID=ab0a0f0c
DTITLE=Yiruma - Stay In Memory
DYEAR=2012
DGENRE=New Age
TTITLE0=Nocturne No.1 In C  Summer Nocturne
TTITLE1=Stay In Memory
TTITLE2=I Could See You
TTITLE3=Nocturne No. 2 In Eb
TTITLE4=Impromptu
TTITLE5=Happy Couple, Sad Couple 'n Happy Again (Piano Ver.)
TTITLE6=Falling In Love (Piano Ver.)
TTITLE7=Nocturne No. 3 In A Minor
TTITLE8=Silver Line
TTITLE9=Nocturne No. 4 In Db
TTITLE10=The Days That'll Never Come
TTITLE11=Painted
EXTD=YEAR: 2012
EXTT0=
EXTT1=
EXTT2=
EXTT3=
EXTT4=
EXTT5=
EXTT6=
EXTT7=
EXTT8=
EXTT9=
EXTT10=
EXTT11=
PLAYORDER=
